{"title":"Tropic Thunder.2008.x264.AC3(5.1).Multi_Sub .mkv","uid":5422113,"size":1670209514,"categoryP":"video","categoryS":"movies","magnet":"?xt=urn:btih:28f3ebc3aed05e256589010fa0097a738625e3bf&amp;dn=Tropic+Thunder.2008.x264.AC3%285.1%29.Multi_Sub+.mkv&amp;tr=udp%3A%2F%2Ftracker.openbittorrent.com%3A80&amp;tr=udp%3A%2F%2Fopen.demonii.com%3A1337&amp;tr=udp%3A%2F%2Ftracker.coppersurfer.tk%3A6969&amp;tr=udp%3A%2F%2Fexodus.desync.com%3A6969","seeders":0,"leechers":1,"uploader":"Zen_Bud","files":-1,"time":1268124537,"description":"General\nComplete name                    : Tropic Thunder.mkv\nFormat                           : Matroska\nFile size                        : 1.56 GiB\nDuration                         : 1h 42mn\nOverall bit rate                 : 2 174 Kbps\n\n\nVideo\nID                               : 1\nFormat                           : AVC\n\nDuration                         : 1h 42mn\nBit rate                         : 1 683 Kbps\nWidth                            : 720 pixels\nHeight                           : 436 pixels\nDisplay aspect ratio             : 2.35:1\nOriginal display aspect ratio    : 2.35:1\nFrame rate                       : 25.000 fps\nResolution                       : 8 bits\nColorimetry                      : 4:2:0\nScan type                        : Progressive\nBits/(Pixel*Frame)               : 0.214\nStream size                      : 1.20 GiB (77%)\nWriting library                  : x264 core 79\n\nAudio\nID                               : 2\nFormat                           : AC-3\nFormat/Info                      : Audio Coding 3\nCodec ID                         : A_AC3\nDuration                         : 1h 42mn\nBit rate mode                    : Constant\nBit rate                         : 448 Kbps\nChannel(s)                       : 6 channels\nChannel positions                : Front: L C R, Surround: L R, LFE\nSampling rate                    : 48.0 KHz\nStream size                      : 328 MiB (21%)\nLanguage                         : English\n\nText #1\nLanguage                         : Danish\n\nText #2\nLanguage                         : English\n\nText #3\nLanguage                         : Dutch\n\nText #4\nLanguage                         : Norwegian\n\nText #5\nLanguage                         : Finnish\n\nText #6\nLanguage                         : Swedish\n\n\nMenu\n00:00:00.000                     : Chapter  1\n\n","torrent":{"xt":"urn:btih:28f3ebc3aed05e256589010fa0097a738625e3bf","amp;dn":"Tropic+Thunder.2008.x264.AC3%285.1%29.Multi_Sub+.mkv","amp;tr":["udp%3A%2F%2Ftracker.openbittorrent.com%3A80","udp%3A%2F%2Fopen.demonii.com%3A1337","udp%3A%2F%2Ftracker.coppersurfer.tk%3A6969","udp%3A%2F%2Fexodus.desync.com%3A6969"],"infoHash":"28f3ebc3aed05e256589010fa0097a738625e3bf","infoHashBuffer":{"type":"Buffer","data":[40,243,235,195,174,208,94,37,101,137,1,15,160,9,122,115,134,37,227,191]},"announce":[],"urlList":[]}}